<svg width="24" height="24" viewBox="0 0 24 24" fill="none" xmlns="http://www.w3.org/2000/svg">
<path d="M11.4229 15.17L17.2529 21C17.7529 21.484 18.4231 21.7521 19.119 21.7465C19.8149 21.7408 20.4807 21.4619 20.9727 20.9698C21.4648 20.4777 21.7437 19.812 21.7494 19.1161C21.755 18.4202 21.4869 17.75 21.0029 17.25L15.1259 11.373M11.4229 15.17L13.9189 12.14C14.2359 11.756 14.6589 11.514 15.1269 11.374C15.6769 11.21 16.2899 11.186 16.8699 11.234C17.6518 11.3011 18.4375 11.1627 19.1493 10.8323C19.8611 10.502 20.4741 9.99124 20.9276 9.35081C21.381 8.71037 21.6591 7.9625 21.7342 7.1814C21.8094 6.4003 21.679 5.61313 21.3559 4.898L18.0799 8.175C17.5318 8.04826 17.0303 7.77016 16.6326 7.37238C16.2348 6.97459 15.9567 6.4731 15.8299 5.925L19.1059 2.649C18.3908 2.32596 17.6036 2.19554 16.8225 2.27068C16.0414 2.34582 15.2936 2.62391 14.6531 3.07735C14.0127 3.53079 13.502 4.14381 13.1716 4.8556C12.8413 5.56738 12.7028 6.35317 12.7699 7.135C12.8609 8.211 12.6989 9.399 11.8659 10.085L11.7639 10.17M11.4229 15.17L6.76793 20.823C6.54232 21.098 6.26163 21.3227 5.94392 21.4827C5.62622 21.6427 5.27854 21.7344 4.92326 21.7518C4.56798 21.7693 4.21298 21.7122 3.8811 21.5842C3.54922 21.4562 3.24782 21.2602 2.99629 21.0086C2.74477 20.7571 2.5487 20.4557 2.42069 20.1238C2.29269 19.792 2.23559 19.4369 2.25308 19.0817C2.27057 18.7264 2.36225 18.3787 2.52222 18.061C2.6822 17.7433 2.90692 17.4626 3.18193 17.237L10.0189 11.607L5.91193 7.5H4.50293L2.25293 3.75L3.75293 2.25L7.50293 4.5V5.909L11.7629 10.169L10.0179 11.606M18.3779 18.375L15.7529 15.75M4.86993 19.125H4.87793V19.133H4.86993V19.125Z" stroke="white" stroke-width="1.5" stroke-linecap="round" stroke-linejoin="round"/>
</svg>
